<svg xmlns="http://www.w3.org/2000/svg" viewBox="0 0 32 32">
  <defs>
    <linearGradient id="grad" x1="0%" y1="0%" x2="100%" y2="100%">
      <stop offset="0%" style="stop-color:#2dd4bf"/>
      <stop offset="100%" style="stop-color:#0d9488"/>
    </linearGradient>
  </defs>
  <rect width="32" height="32" rx="7" fill="url(#grad)"/>
  <g transform="translate(4, 4)" fill="none" stroke="white" stroke-width="2" stroke-linecap="round" stroke-linejoin="round">
    <path d="m10 16 1.5 1.5"/>
    <path d="m14 8-1.5-1.5"/>
    <path d="M15 2c-1.798 1.998-2.518 3.995-2.807 5.993"/>
    <path d="m16.5 10.5 1 1"/>
    <path d="m17 6-2.891-2.891"/>
    <path d="M2 15c6.667-6 13.333 0 20-6"/>
    <path d="m20 9 .891.891"/>
    <path d="M3.109 14.109 4 15"/>
    <path d="m6.5 12.5 1 1"/>
    <path d="m7 18 2.891 2.891"/>
    <path d="M9 22c1.798-1.998 2.518-3.995 2.807-5.993"/>
  </g>
</svg>
